<svg width="128" height="22" viewBox="0 0 128 22" fill="none" xmlns="http://www.w3.org/2000/svg">
    <path
        d="M0.640625 21H4.76953V14.7793H8.57031C12.7266 14.7793 15.502 12.0996 15.502 8.03906V8.01172C15.502 3.95117 12.7266 1.27148 8.57031 1.27148H0.640625V21ZM7.55859 4.53906C9.92383 4.53906 11.3184 5.7832 11.3184 8.02539V8.05273C11.3184 10.2949 9.92383 11.5527 7.55859 11.5527H4.76953V4.53906H7.55859ZM17.7031 21H21.6953V12.6055C21.6953 10.6914 22.8301 9.35156 24.5938 9.35156C26.4121 9.35156 27.4238 10.5684 27.4238 12.6191V21H31.416V11.7988C31.416 8.25781 29.4473 6.04297 26.2754 6.04297C24.0742 6.04297 22.5293 7.05469 21.7773 8.87305H21.6953V1.27148H17.7031V21ZM38.9766 21.3008C41.1914 21.3008 42.6953 20.2617 43.4473 18.5801H43.5293V21H47.5215V6.34375H43.5293V14.7656C43.5293 16.6797 42.3945 17.9922 40.6035 17.9922C38.8125 17.9922 37.9102 16.8848 37.9102 14.9707V6.34375H33.918V15.8047C33.918 19.2363 35.75 21.3008 38.9766 21.3008ZM56.8184 21.3008C60.7285 21.3008 63.2578 18.8672 63.4492 15.668V15.5859H59.7305L59.7168 15.709C59.4434 17.1855 58.4453 18.1699 56.8457 18.1699C54.877 18.1699 53.6465 16.543 53.6465 13.6719V13.6582C53.6465 10.8555 54.877 9.17383 56.832 9.17383C58.4863 9.17383 59.457 10.2402 59.7031 11.6348L59.7305 11.7578H63.4355V11.6621C63.2852 8.49023 60.7559 6.04297 56.7773 6.04297C52.3887 6.04297 49.5859 8.95508 49.5859 13.6445V13.6582C49.5859 18.3887 52.3477 21.3008 56.8184 21.3008Z"
        fill="#061494" />
    <path
        d="M71.0645 21H76.0957L82.6992 1.27148H78.1191L73.6211 16.7754H73.5391L69.0273 1.27148H64.4609L71.0645 21ZM86.2402 4.45703C87.4434 4.45703 88.373 3.51367 88.373 2.37891C88.373 1.24414 87.4434 0.300781 86.2402 0.300781C85.0371 0.300781 84.1074 1.24414 84.1074 2.37891C84.1074 3.51367 85.0371 4.45703 86.2402 4.45703ZM84.2441 21H88.2363V6.34375H84.2441V21ZM90.916 21H94.9082V12.5781C94.9082 10.6641 96.043 9.35156 97.834 9.35156C99.625 9.35156 100.527 10.4453 100.527 12.3594V21H104.52V11.5391C104.52 8.10742 102.688 6.04297 99.4609 6.04297C97.2461 6.04297 95.7422 7.06836 94.9902 8.75H94.9082V6.34375H90.916V21ZM107.145 21H111.137V12.6055C111.137 10.6914 112.271 9.35156 114.035 9.35156C115.854 9.35156 116.865 10.5684 116.865 12.6191V21H120.857V11.7988C120.857 8.25781 118.889 6.04297 115.717 6.04297C113.516 6.04297 111.971 7.05469 111.219 8.87305H111.137V1.27148H107.145V21ZM125.506 21.2324C126.736 21.2324 127.721 20.248 127.721 19.0176C127.721 17.7734 126.736 16.8027 125.506 16.8027C124.262 16.8027 123.291 17.7734 123.291 19.0176C123.291 20.248 124.262 21.2324 125.506 21.2324Z"
        fill="#050408" />
</svg>
    